<svg xmlns="http://www.w3.org/2000/svg" viewBox="0 0 1200 750">
 <defs><linearGradient id="g" x1="0" x2="1"><stop stop-color="#8b5cf6"/><stop offset="1" stop-color="#14b8a6"/></linearGradient></defs><rect width="1200" height="750" fill="#09090b"/>
 <rect x="75" y="65" width="1050" height="620" rx="18" fill="#111113" stroke="#3f3f46"/><rect x="75" y="65" width="1050" height="58" rx="18" fill="#18181b"/><circle cx="110" cy="94" r="7" fill="#ef4444"/><circle cx="134" cy="94" r="7" fill="#eab308"/><circle cx="158" cy="94" r="7" fill="#22c55e"/>
 <rect x="110" y="160" width="310" height="480" rx="12" fill="#0d0d0f" stroke="#27272a"/><rect x="455" y="160" width="635" height="480" rx="12" fill="#0d0d0f" stroke="#27272a"/>
 <rect x="140" y="195" width="130" height="15" rx="7" fill="#d4d4d8"/><g fill="#27272a"><rect x="140" y="245" width="250" height="50" rx="8"/><rect x="140" y="310" width="250" height="50" rx="8"/><rect x="140" y="375" width="250" height="50" rx="8"/></g><rect x="140" y="570" width="250" height="38" rx="8" fill="url(#g)"/>
 <circle cx="510" cy="215" r="18" fill="url(#g)"/><rect x="548" y="200" width="180" height="12" rx="6" fill="#a1a1aa"/><rect x="548" y="225" width="120" height="9" rx="4" fill="#52525b"/>
 <rect x="493" y="273" width="560" height="118" rx="12" fill="#18181b"/><g fill="#71717a"><rect x="520" y="302" width="460" height="9" rx="4"/><rect x="520" y="328" width="420" height="9" rx="4"/><rect x="520" y="354" width="310" height="9" rx="4"/></g><rect x="493" y="422" width="560" height="142" rx="12" fill="#18181b"/><rect x="520" y="455" width="96" height="22" rx="11" fill="#8b5cf6" fill-opacity=".3"/><rect x="520" y="503" width="470" height="9" rx="4" fill="#52525b"/><rect x="520" y="529" width="340" height="9" rx="4" fill="#52525b"/>
</svg>
