<svg xmlns="http://www.w3.org/2000/svg" viewBox="0 0 1200 750">
 <defs><linearGradient id="g" x1="0" y1="0" x2="1" y2="1"><stop stop-color="#18181b"/><stop offset="1" stop-color="#09090b"/></linearGradient><linearGradient id="a"><stop stop-color="#8b5cf6"/><stop offset="1" stop-color="#3b82f6"/></linearGradient></defs>
 <rect width="1200" height="750" fill="url(#g)"/><rect x="90" y="70" width="1020" height="610" rx="18" fill="#111113" stroke="#3f3f46"/>
 <rect x="90" y="70" width="210" height="610" rx="18" fill="#0d0d0f"/><circle cx="135" cy="116" r="14" fill="url(#a)"/><rect x="165" y="108" width="82" height="15" rx="7" fill="#52525b"/>
 <g fill="#27272a"><rect x="120" y="175" width="145" height="34" rx="7"/><rect x="120" y="226" width="115" height="12" rx="6"/><rect x="120" y="263" width="135" height="12" rx="6"/><rect x="120" y="300" width="105" height="12" rx="6"/></g>
 <rect x="345" y="112" width="300" height="25" rx="8" fill="#e4e4e7"/><rect x="345" y="155" width="190" height="12" rx="6" fill="#52525b"/>
 <g fill="#18181b" stroke="#3f3f46"><rect x="345" y="215" width="215" height="112" rx="12"/><rect x="580" y="215" width="215" height="112" rx="12"/><rect x="815" y="215" width="215" height="112" rx="12"/><rect x="345" y="355" width="685" height="260" rx="12"/></g>
 <path d="M390 550 C460 530 490 570 550 500S650 525 710 430s100 30 150-15 80 0 120-25" fill="none" stroke="url(#a)" stroke-width="6" stroke-linecap="round"/><path d="M390 575H980" stroke="#27272a"/><g fill="#71717a"><rect x="375" y="245" width="78" height="10" rx="5"/><rect x="610" y="245" width="65" height="10" rx="5"/><rect x="845" y="245" width="86" height="10" rx="5"/></g>
</svg>
